<?xml version="1.0" encoding="utf-8"?><!-- Generator: Adobe Illustrator 22.1.0, SVG Export Plug-In . SVG Version: 6.00 Build 0)  --><svg version="1.1" id="Layer_1" xmlns="http://www.w3.org/2000/svg" xmlns:xlink="http://www.w3.org/1999/xlink" x="0px" y="0px"	 viewBox="0 0 64 64" style="enable-background:new 0 0 64 64;" xml:space="preserve"><style type="text/css">	.st0{fill:url(#SVGID_1_);}	.st1{fill:url(#SVGID_2_);}	.st2{fill:url(#SVGID_3_);}</style><linearGradient id="SVGID_1_" gradientUnits="userSpaceOnUse" x1="32" y1="63.39" x2="32" y2="0.5657" gradientTransform="matrix(1 0 0 -1 0 63.89)">	<stop  offset="0" style="stop-color:#2AB793"/>	<stop  offset="1" style="stop-color:#2C98B5"/></linearGradient><path class="st0" d="M32,2C15.4,2,2,15.4,2,32s13.4,30,30,30s30-13.4,30-30C62,15.4,48.6,2,32,2z M32,60C16.5,60,4,47.5,4,32	S16.5,4,32,4s28,12.5,28,28C60,47.5,47.5,60,32,60z"/><linearGradient id="SVGID_2_" gradientUnits="userSpaceOnUse" x1="32" y1="63.39" x2="32" y2="0.5657" gradientTransform="matrix(1 0 0 -1 0 63.89)">	<stop  offset="0" style="stop-color:#2AB793"/>	<stop  offset="1" style="stop-color:#2C98B5"/></linearGradient><path class="st1" d="M35,24v2c5,0,9,4,9,9v16c0,0.6-0.4,1-1,1H21c-0.6,0-1-0.4-1-1V35c0-5,4-9,9-9v-2c-6.1,0-11,4.9-11,11v16	c0,1.7,1.3,3,3,3h22c1.7,0,3-1.3,3-3V35C46,28.9,41.1,24,35,24z"/><linearGradient id="SVGID_3_" gradientUnits="userSpaceOnUse" x1="32" y1="63.39" x2="32" y2="0.5657" gradientTransform="matrix(1 0 0 -1 0 63.89)">	<stop  offset="0" style="stop-color:#2AB793"/>	<stop  offset="1" style="stop-color:#2C98B5"/></linearGradient><path class="st2" d="M32,22c4.4,0,8-3.6,8-8s-3.6-8-8-8s-8,3.6-8,8C24,18.4,27.6,22,32,22z M32,8c3.3,0,6,2.7,6,6s-2.7,6-6,6	s-6-2.7-6-6C26,10.7,28.7,8,32,8z"/></svg>